<?xml version="1.0" encoding="UTF-8"?>
<svg id="Layer_1" data-name="Layer 1" xmlns="http://www.w3.org/2000/svg" viewBox="0 0 1080 1080">
  <defs>
    <style>
      .cls-1 {
        fill: #ff6700;
      }

      .cls-1, .cls-2 {
        stroke-width: 0px;
      }

      .cls-2 {
        fill: #fff;
      }
    </style>
  </defs>
  <rect class="cls-1" x="447.41" y="935.28" width=".19" height="40.86"/>
  <path class="cls-1" d="M458.05,345.27c1.07,3.23-.03,5.18-1.96,7.46-16.31,19.15-31.97,38.89-48.94,57.44-27.35,29.91-36.84,65.18-34.17,104.66.22,3.27.25,6.56.31,9.85.01.43-.36.86-.94,2.14-86.83-34.54-173.63-69.05-260.43-103.57.01-.37.03-.73.04-1.1,1.45-.36,2.89-.78,4.36-1.07,32.19-6.39,174.54-116.89,209.34-136.63,13.14-7.44,26.37-15.19,40.43-20.43,34.41-12.84,60.94-4.23,83.29,25.3,3.64,4.81,7.13,9.73,11.32,15.47,3.87-10.67,3.59-20.2-.52-29.53-6.04-13.76-15.84-24.64-27.98-33.13-9.67-6.76-20.1-12.42-30.19-18.58-.91-.56-1.77-1.18-2.66-1.78.17-.38.34-.76.51-1.15,5.31,1.98,10.76,3.64,15.9,5.99,15.2,7,29.16,15.94,40.84,28.04,12.11,12.54,16.81,27.19,11.67,44.36-.55,1.82-.87,3.72-1.41,6.12,5.62.35,10.64.66,16.45,1.03-.71,1.87-1.14,3.35-1.8,4.72-3.67,7.54-7.46,15.02-11.08,22.58-1.53,3.2-3.36,5.31-7.39,5.28-4.02-.02-6.31,2.52-4.99,6.53Z"/>
  <path class="cls-1" d="M496.05,886.6c-1.59.51-3.14,1.15-4.76,1.5-12.2,2.7-24.44,5.18-36.59,8.06-6.87,1.62-8.74,4.3-9.51,10.81-3.27,27.72-4.54,55.53-4.97,83.36-205.24-44.99-358.85-227.86-358.85-446.62,0-41.74,5.59-82.17,16.08-120.59,1.19.47,2.37.95,3.55,1.42,30.7,12.22,61.38,24.51,92.07,36.77,57.7,23.07,115.42,46.08,173.05,69.32,2.91,1.18,5.6,3.95,7.4,6.65,4.17,6.23,2.46,13.34,1.8,20.16-.61,6.29-.99,12.42,2.4,18.22,2.88,4.9,5.64,9.89,8.09,15.02,7.21,15.13,13.66,30.71,25.73,42.91,2.44,2.47,5.31,4.48,2.38,8.51-.54.75.15,2.53.52,3.76,5.47,17.99,13.89,34.42,26.1,48.8.97,1.14,2.16,2.07,3.42,3.26,1.04-2.49,1.79-4.3,2.54-6.11.5.04,1,.09,1.5.14.27,1.6.76,3.21.78,4.82.13,8.55.47,17.12.1,25.65-.38,8.72,2.68,14.79,10.8,18.58,4.61,2.15,8.74,5.35,13.09,8.07-.19.4-.39.79-.59,1.18-6.77-2.1-13.54-4.21-20.48-6.37-.2,1.14-.44,1.63-.34,2.05.64,2.72,1.15,5.49,2.07,8.12,10.33,29.38,14.32,59.66,13.2,90.71-.29,8.07-1.89,14.73-10.43,18.24-4.76,1.95-5.99,8.79-3.94,15.9,1.43,4.99,5.17,6.34,9.89,6.27,8.55-.11,17.11-.12,25.66-.16,2.67-.01,5.34,0,8.01,0,.07.53.15,1.06.23,1.59Z"/>
  <path class="cls-1" d="M493.8,998.78c1.12-.66,2.26-1.29,3.42-1.89-.56.68-1.12,1.37-1.68,2.05-.58-.05-1.16-.1-1.74-.16Z"/>
  <path class="cls-1" d="M506.4,471.21c-9.59,8.61-17.89,17.91-19.66,31.43-.22,1.66-1.25,3.46-2.41,4.73-8.47,9.29-12.88,20.43-15.56,32.5-1.42,6.36-3.37,12.61-5.26,19.57,3.42-1.5,6.5-2.84,10.13-4.43v10.22c-14.35.42-25.14-13.23-21.23-26.56.69-2.35,1.62-4.69,2.81-6.82,2.31-4.11,3.24-7.54-1.39-11.07-2.15-1.64-2.89-5.05-4.52-7.49-2.2-3.3-4.72-6.4-6.94-9.68-.75-1.1-1.63-2.65-1.38-3.75.6-2.68,1.37-5.52,2.86-7.77,20.33-30.7,33.76-64.55,45.65-99.12,1.76-5.12,3.22-10.37,5.28-15.37,1.47-3.56,3.93-6.7,5.58-10.21,1.73-3.66,2.79-7.63,4.57-11.26,1.14-2.34,2.61-5.01,4.69-6.3,8.62-5.35,17.52-10.22,27.08-15.71.17,2.27.39,3.79.39,5.31.1,29.41.14,58.83.27,88.25.02,5.89-2.01,10.77-5.82,15.26-4.06,4.78-7.38,10.21-11.53,14.91-4.2,4.75-8.88,9.12-13.61,13.36Z"/>
  <path class="cls-1" d="M541.37,170.84c.06-15.57.01-31.15.01-46.72.23-.04.45-.09.68-.14.52,27.83,1.03,55.66,1.55,83.49-.51.1-1.02.2-1.54.31-.35-1.81-1-3.61-1-5.42.02-10.5.26-21.01.3-31.52Z"/>
  <path class="cls-1" d="M562.89,967.06c-15.05,11.49-31.5,21.35-46.09,33.37-3.34-.15-6.67-.34-9.98-.58,18.3-11.51,36.6-23.01,54.9-34.51.39.57.78,1.15,1.17,1.72Z"/>
  <path class="cls-1" d="M587.48,305.78c1.62-.01,3.23-.15,5.68-.26-.53-2.46-.79-4.5-1.42-6.42-6.07-18.47-.71-34.01,12.45-47.3,15.34-15.48,34.12-25.33,54.8-32-.8.6-1.54,1.33-2.42,1.76-19.25,9.47-34.41,24.09-48.84,39.43-11.7,12.44-14.57,27.86-8.23,42.38,2.04-2.54,3.97-4.59,5.48-6.91,6.39-9.85,13.56-18.99,22.81-26.35,17.51-13.94,37.18-16.33,58.25-10.72,16.2,4.3,31.11,11.63,45.28,20.39,39.96,24.68,125.21,94.12,148.94,110.02,21.95,14.7,46.46,23.79,72.93,26.94.42.05.82.35,2.3,1-111.18,49.42-221.54,98.47-333.33,148.15-2.68-12.84-6.05-24.53-7.38-36.45-1.57-14.17-6.66-26.55-14.02-38.49-4.54-7.35-8.04-15.35-11.92-23.1-2.27-4.55-4.04-9.39-6.63-13.74-5.76-9.65-13.89-15.74-25.76-15.1-4.69.26-6.47-1.24-6.48-6.4-.04-40.29-.36-80.58-.79-120.87-.05-4.48,1.1-5.99,5.74-5.87,10.85.28,21.71-.01,32.56-.09Z"/>
  <path class="cls-1" d="M149,376.04c-12.79,8.79-26.78,14.86-42.08,16.59,62.39-178.28,232.1-306.15,431.68-306.15s365.28,124.86,429.42,299.84c-4.18.73-8.64.77-13.31.19-19.43-2.4-36.61-10.32-51.85-22.43-5.69-4.52-85.76-77.48-113.33-96.32-28.92-19.78-59.21-36.82-93.52-45.6-2.42-.62-4.82-1.35-7.24-2.04,20.25-6.95,38.53-16.72,56.04-28.2-1.65-.58-3.12-.64-4.57-.57-27.64,1.26-55.16,3.77-82.09,10.28-38.06,9.2-68.16,28.85-81.95,67.36-3.77,10.55-9.4,14.24-20.03,12.8-3.69-.5-5.24-1.3-5.37-5.05-.63-17.56-.92-35.17-2.33-52.67-.77-9.49,3.08-15.58,10.03-20.91,8.07-6.21,16.56-11.49,27.51-13.43-27.5-25.1-37.49-57.73-44.01-92.3-6.12,35.95-15.81,69.92-45.04,94.35,2.72.14,5.56-.15,8.16.49,12.04,2.95,22.02,9.35,29.81,18.98,1.24,1.53,2.12,3.83,2.15,5.78.3,16.94.56,33.89.34,50.82-.04,3.13-1.82,6.52-3.63,9.24-1.44,2.18-3.79,2.28-5.25-.84-2.04-4.35-5.2-4.88-9.35-2.63-1.56.85-3.85,1.51-5.42,1.02-8.5-2.65-8.94-2.65-15.07,4.18-4.77,5.33-10.22,4.44-12.89-2.17-.92-2.28-1.57-4.67-2.29-7.03-3.44-11.36-9.01-21.53-17.23-30.12-18.82-19.69-42.58-30.53-68.43-37.18-27.3-7.02-55.39-6.75-83.29-8.05-.96-.05-1.94.54-2.91.83-.07.41-.15.83-.22,1.25,19.09,8.67,38.17,17.35,58.09,26.41-1.61.75-2.14,1.12-2.73,1.26-27.37,6.52-52.42,18.36-75.69,33.86-24.21,16.13-119.48,99.59-120.78,100.68-7.05,5.91-13.77,12.3-21.33,17.48Z"/>
  <path class="cls-1" d="M995.84,543.71c0,252.53-204.71,457.24-457.24,457.24-1.19,0-2.38,0-3.56-.02.07-.05.15-.08.22-.12,6.28-3.08,12.28-7.19,18.92-8.98,7.76-2.11,14.48-5.07,19.74-11.17,18.91-21.91,37.87-43.77,56.64-65.8,1.92-2.25,3.75-5.41,3.87-8.22.49-11.65.71-23.35.26-35-.51-13.24-6.94-18.16-20.03-16.36-3.27.45-6.53.94-9.8,1.41,3.85-3.25,7.94-5.58,12.25-7.37,3.35-1.39,4.2-3.33,3.74-6.85-3.49-26.96.16-53.12,9.29-78.61.47-1.31.67-2.73,1.15-4.79-7.85,2.03-15.02,3.87-22.19,5.72-.11-.33-.22-.65-.33-.98,6.09-2.54,12.19-5.09,18.48-7.71-1.31-2.72-2.32-4.81-3.34-6.91,1.6.46,2.58,1.29,3.5,2.19,11.97,11.72,25.5,21.23,40.61,28.47,13.08,6.27,26.52,9.93,40.98,5.18,5.59-1.84,9.39-5.66,10.22-11.54,2.03-14.35,1.59-28.51-3.84-42.26-.95-2.39-.25-5.38-.7-8.03-.38-2.24-.8-4.78-2.1-6.5-2.93-3.86-6.7-7.08-9.64-10.93-9.13-11.94-15.07-25.07-18.73-39.96-5.23-21.28-19.13-35.62-41.47-40.26-15.47-3.22-21.17-10.05-23.1-29.15-.4-3.89,1.07-7.97,1.68-11.96,6.99,7.39,2.33,18.7,11.62,25.42-.25-2.09-.27-3.34-.55-4.53-2.29-9.59-4.32-19.27-7.08-28.73-1.35-4.62.18-6.23,4.16-7.98,32.52-14.25,64.93-28.77,97.4-43.13,83.5-36.92,166.98-73.87,250.56-110.62,11.98,40.86,18.41,84.1,18.41,128.84Z"/>
  <path class="cls-2" d="M422.27,684.63c13.81,27.96,28.3,55.82,37.12,85.72,8.83,29.9,11.7,62.45,2.06,92.1-2.74,8.44-6.49,16.68-7.34,25.51s1.96,18.75,9.54,23.36c6.45,3.92,14.92,3.07,21.68-.29,10.3-5.13,17.34-15.38,20.94-26.31s4.16-22.6,4.39-34.11c1.35-66.89-8.05-135.7-40.51-194.2-8.32-14.99-18.24-29.35-31.34-40.41-8.54-7.21-53.8-32.88-46.73-5.09,6.54,25.7,18.48,50.05,30.17,73.72Z"/>
</svg>